<?xml version="1.0" standalone="yes"?>
<svg xmlns="http://www.w3.org/2000/svg" width="1583" height="294">
<path style="fill:#010101; stroke:none;" d="M0 0L0 176L1 176C3.18457 148.357 13.2446 121.532 16.3904 94C16.8546 89.9374 13.6862 86.7417 14.1713 83.0046C14.8433 77.8273 21.2912 76.1262 24.392 80.2292C27.9794 84.9761 21.6542 89.4488 20.6343 94.0147C18.432 103.873 17.4684 117.877 18.0725 127.961C18.29 131.59 21.7058 134.393 21.3387 137.988C20.8974 142.31 15.5929 144.095 14.0193 148.055C9.01193 160.654 3.64809 176.58 1.72299 190C1.26994 193.158 2.81465 195.894 2.64738 198.985C2.47441 202.182 0.302982 204.793 0.054784 208.039C-2.10833 236.331 0 265.617 0 294L820 294C820.59 283.251 832.298 282.913 832 294L1583 294L1583 283L1572.68 271.749L1555 258.709L1525 237.134L1512.61 232.707L1511.02 221L1500.69 199L1463 122C1458.82 122.128 1456.83 120.723 1455 117C1425.91 119.296 1396.17 118.271 1367 118.985C1352.71 119.335 1337.42 115.941 1325.33 124.919C1317.97 130.382 1313.21 144.102 1308.72 152C1297.38 171.943 1284.81 191.532 1274.46 212C1272.36 216.138 1274.86 221.166 1272.24 224.771C1268.77 229.557 1264.46 225.669 1260 226.059C1253.16 226.659 1245.35 231.641 1239 234.201C1212.25 244.988 1185.77 256.459 1159 267.2C1153.96 269.223 1147.68 270.838 1143.27 274.074C1140.34 276.225 1139.21 280.879 1134.98 280.998C1130.85 281.114 1127.34 277.314 1123 277.044C1104.79 275.912 1086.25 276.087 1068 275.999C1063.92 275.98 1059.06 274.424 1055.09 275.329C1051.19 276.217 1048.52 280.959 1044.11 278.777C1039.82 276.655 1040.87 271.537 1038.68 268C1035.1 262.193 1029.5 257.044 1024.93 252C1011.46 237.155 998.646 221.68 985 207.005C981.112 202.824 973.56 202.016 970.786 197.852C968.758 194.81 970.819 191.273 969.621 188C967.575 182.407 963.106 177.033 959.95 172C950.793 157.4 942.267 142.263 932.561 128.019C929.904 124.12 920.75 121.585 921.832 116.015C922.809 110.982 934.078 108.236 937.729 103.999C951.424 88.1099 964.824 71.9669 978.427 56C988.257 44.4623 999.353 33.3658 1008.13 21C1011.16 16.7383 1009.49 9.60446 1015.04 7.28781C1017.76 6.15353 1020.47 7.64731 1021.81 10.1096C1025.43 16.8152 1025.71 23.111 1030.87 30C1040.81 43.2559 1050.43 56.7458 1060.37 70C1067.82 79.9244 1072.69 88.5515 1085 92.412C1096.87 96.1348 1117.62 89.4912 1130 88.1659C1149.13 86.1183 1172.58 87.244 1190.9 81.4275C1194.34 80.3344 1195.72 76.5686 1199.04 75.402C1202.56 74.1662 1206.17 76.7402 1210 75.5417C1229.41 69.4642 1247.4 58.362 1267 53C1267.65 47.2151 1273.73 41.2534 1278.36 48.1127C1280.34 51.049 1279.1 54.8562 1280.89 58C1288.21 70.8479 1300.16 82.4521 1309.4 94C1313.35 98.9366 1317.62 106.778 1323.17 109.977C1337.09 118 1352.25 116 1368 116C1397.02 116 1425.94 115 1455 115C1458.78 104.789 1454.69 93.4453 1452.6 83C1448.36 61.8132 1442.77 40.4234 1440 19C1432.34 16.2457 1433.83 4.40341 1441.94 7.50696C1447.52 9.63965 1443.84 25.2122 1445 31C1449.81 55.0702 1451.07 84.0798 1460.15 106.867C1461.4 110.01 1465.06 110.948 1466.21 114.108C1467.38 117.32 1465.43 120.671 1466.46 124C1473.22 145.91 1487.5 167.499 1497.75 188C1502.73 197.952 1506.77 212.268 1513.97 220.686C1515.96 223.018 1519.3 223.115 1521.26 225.433C1523.43 228.008 1522.85 231.594 1525.32 234.101C1539.9 248.894 1560.7 259.064 1577 272L1578 272L1583 270L1583 0L757 0L505 0L428 0L390 1L414 22.4105L466 67L467 67C475.329 63.0108 474.968 71.6048 480.148 75.2654C489.957 82.1966 501.567 87.1986 512 93.1505C529.859 103.338 547.707 113.904 566 123.289C570.809 125.757 576.789 122.772 580.768 125.747C584.728 128.708 584.803 138.302 588.611 143C602.974 160.72 617.352 178.447 631.919 196C635.71 200.568 639.297 206.942 644.171 210.397C647.096 212.472 651.001 211.959 653.243 215.148C657.127 220.674 656.891 227.83 661.888 233.98C664.829 237.599 681.345 242.499 672.707 249.253C670.049 251.331 666.535 250.48 664.617 247.851C659.624 241.005 660.565 231.492 651.826 225.984C642.446 220.071 643.058 213.577 636.2 205C623.336 188.912 610.368 172.882 597.25 157C590.973 149.401 583.539 134.576 572 135.735C561.715 136.767 549.379 145.397 540 149.691C520.952 158.413 502.297 166.281 486.465 178.603C481.161 182.73 477.102 190.584 473.151 196C464.619 207.697 455.9 219.262 447.424 231C438.038 243.999 427.369 256.479 418.765 270C415.944 274.434 417.726 282.485 411.957 284.607C404.704 287.275 404.369 276.794 401.968 273C394.131 260.62 381.409 249.996 371.715 239C354.327 219.278 336 193.694 312.871 181.649C303.232 176.629 290.44 174.709 280 171.709C263.316 166.915 246.731 161.768 230 157.141C224.873 155.723 215.89 159.385 213.047 153.89C208.955 145.983 223.671 142.084 224 153C250.557 158.496 277.017 167.926 303 175.72C310.898 178.089 324.344 174.594 328 182C347.711 182.846 367.311 186.68 387 188.025C392.656 188.411 401.331 191.463 406.715 189.397C417.972 185.077 419.625 172.124 423 162C429.769 141.692 437.1 121.481 443.325 101C444.986 95.5362 441.557 91.0918 444 86C433.274 67.1704 418.943 49.6947 406.424 32C397.773 19.7719 391.417 7.78055 377.715 0.983795C369.857 -2.9137 354.703 0 346 0L271 0L0 0z"/>
<path style="fill:#ffffff; stroke:none;" d="M378 0L395.975 18L427.576 63L444 85L444 86C440.628 90.5277 444.392 96.5028 442.662 102C436.233 122.435 429.108 142.677 422.333 163C418.902 173.294 417.308 183.761 406.715 188.977C401.017 191.783 388.231 188.245 382 187.424C364.365 185.101 345.776 182.367 328 182C325.64 174.053 310.542 177.628 303 175.424C277.47 167.965 250.344 156.55 224 153C224.428 140.669 207.738 146.017 213.029 154.772C215.891 159.509 225.961 156.264 231.001 157.709C249.35 162.971 267.716 168.235 286 173.72C294.323 176.217 305.454 177.572 312.871 182.139C335.443 196.038 352.785 219.021 370.83 239C380.825 250.065 392.623 260.871 401.276 273C404.183 277.074 404.331 287.461 411.957 285.153C417.998 283.324 416.433 274.486 419.447 270C428.418 256.645 438.667 244.001 448.151 231C460.054 214.683 471.603 192.935 486.465 179.318C488.849 177.134 492.194 177.418 494.571 175.398C496.947 173.379 497.445 170.193 500.144 168.363C511.685 160.539 527.251 155.817 540 150.139C549.47 145.922 561.669 137.199 572 136.163C583.427 135.017 591 150.433 597.25 158C610.367 173.882 623.34 189.909 636.2 206C640.255 211.074 640.328 217.163 643.746 221.772C645.771 224.501 649.244 224.671 651.826 226.588C655.783 229.526 660.804 236.103 662.575 240.715C663.588 243.353 662.633 246.352 664.604 248.683C666.739 251.208 671.017 251.467 673.482 249.258C681.595 241.989 666.562 238.192 663.464 234.903C660.511 231.768 656.527 227.155 655.222 223C654.309 220.091 655.348 216.878 653.257 214.318C651.208 211.81 647.634 212.144 645.089 210.397C640.776 207.436 637.655 202.019 634.389 198C619.455 179.623 604.429 161.319 589.424 143C587.396 140.523 584.303 137.635 583.532 134.424C582.773 131.267 584.538 128.279 581.566 125.742C577.602 122.36 570.073 124.929 565 122.229C547.489 112.911 530.23 102.979 513 93.1505C498.968 85.1455 485.83 78.9804 475.401 67.4329C472.885 64.6466 469.66 65.0189 467 67L466 67C452.649 48.438 428.32 33.9402 411 19C405.261 14.0497 393.26 7.33865 391 0L378 0M1455 117C1456.29 121.272 1458.65 122.346 1463 122C1470.76 149.142 1488.93 174.389 1500.69 200C1503.93 207.058 1508.86 214.544 1510.94 222C1511.96 225.646 1509.8 230.417 1512.6 233.482C1515.35 236.483 1520.55 235.211 1524 237.148C1533.12 242.264 1541.55 249.684 1550 255.849C1557.3 261.169 1566.45 265.959 1572.68 272.515C1576.86 276.909 1575.85 281.892 1583 283L1583 270L1578 272L1577 272C1563.18 256.426 1541.58 248.023 1526.15 234.101C1523.14 231.391 1523.84 227.4 1521.26 224.738C1519.13 222.543 1515.95 222.444 1513.97 219.853C1505.31 208.567 1500.15 191.786 1493.75 179C1484.76 161.012 1473.97 142.925 1466.9 124.09C1465.54 120.464 1467.8 116.747 1466.25 113.224C1464.91 110.169 1461.38 109.224 1460.15 105.945C1455.54 93.7206 1454.56 78.8172 1452 66C1449.19 51.9566 1444.05 36.3369 1443.57 22.0394C1443.41 17.2765 1449.55 9.44962 1441.94 6.98767C1433.45 4.23941 1431.34 17.1506 1440 19C1441.67 39.9529 1448.08 61.3822 1452.2 82C1454.46 93.2944 1457.66 103.814 1455 115C1424.94 115 1395.02 116 1365 116C1350.59 116 1335.45 118.107 1323.17 109.397C1317.41 105.31 1312.99 97.4884 1308.6 92C1299.73 80.9131 1289.1 70.0357 1281.57 58C1279.46 54.6271 1280.74 50.3027 1278.39 47.2292C1273.24 40.4922 1267.32 47.1841 1267 53C1247.36 56.382 1229.1 69.3857 1210 75.1304C1206.15 76.2884 1202.68 73.7723 1199.04 74.8495C1195.28 75.9649 1193.8 80.2536 1189.96 81.4275C1171.43 87.0782 1148.27 86.1026 1129 88.1659C1116.98 89.4532 1097.62 95.6503 1086 92.3765C1073.52 88.8619 1068.53 79.882 1061.13 70C1050.94 56.4102 1041.06 42.5898 1030.87 29C1026.98 23.8008 1021.85 3.10147 1014.11 7.19446C1009.61 9.57373 1011.13 14.1615 1009.32 18C1007.23 22.4155 1003.03 26.326 999.87 30C981.329 51.5729 962.935 73.271 944.576 95C940.795 99.475 936.721 106.102 931.714 109.231C927.907 111.61 921.195 110.414 921.377 116.999C921.527 122.439 928.318 123.402 931.214 127.059C937.921 135.525 943.117 145.818 948.808 155C955.288 165.456 963.245 175.9 968.533 187C970.309 190.727 968.112 195.418 970.746 198.682C973.307 201.855 978.349 201.153 981.424 204.148C994.678 217.057 1006.51 232.089 1018.72 246C1025.06 253.232 1032.25 260.143 1037.93 267.91C1040.35 271.214 1039.49 276.594 1043.23 278.817C1048.06 281.689 1050.95 276.931 1055.09 275.627C1058.6 274.521 1063.33 275.982 1067 275.999C1085.25 276.087 1103.79 275.912 1122 277.044C1126.76 277.34 1130.4 281.561 1134.98 281.428C1139.35 281.302 1140.4 277.069 1143.27 274.698C1147.47 271.241 1154 269.601 1159 267.6C1185.78 256.88 1212.29 245.479 1239 234.603C1245.43 231.986 1252.96 227.354 1259.83 226.367C1264.16 225.745 1268.56 229.934 1272.26 225.566C1275.33 221.931 1272.63 216.29 1275.02 211.961C1286.33 191.483 1298.25 171.318 1309.85 151C1314.24 143.315 1318.85 130.073 1326.18 124.919C1338.65 116.164 1353.42 119.342 1368 118.985C1396.53 118.286 1426.7 120.577 1455 117z"/>
<path style="fill:#010101; stroke:none;" d="M392 7C401.154 23.0704 413.442 37.7897 423.975 53C430.197 61.9848 436.356 74.3277 444.515 81.608C450.867 87.2768 460.714 81.405 463.837 74.8302C467.614 66.8797 453.799 59.1393 449 55C430.489 39.0329 412.168 20.7905 392 7M1073 92C1063.06 72.0383 1045.49 54.0918 1032.42 36C1029.58 32.0607 1022.92 18.7848 1017.17 19.466C1013.4 19.9134 1011.83 26.1362 1010.58 29C1007.05 37.0779 1002.85 44.878 999.428 53C998.156 56.0197 996.201 60.3007 998.862 63.1574C1003.36 67.9907 1014.89 70.1016 1021 72.4244C1037.99 78.8893 1055.28 87.8979 1073 92M1007 28L1008 29L1007 28M1006 30C1001.51 36.2756 996.891 42.5336 992.675 49C991.518 50.7755 988.314 54.9295 990.782 56.9136C993.329 58.9619 995.786 54.7224 996.676 52.9807C999.867 46.7333 1006.22 37.0526 1006 30M984 52L985 53L984 52M1207 80L1207 81L1279 102.424L1322 114C1312.92 99.4637 1300.51 86.3845 1289.8 73C1285.84 68.0509 1281.23 59.3437 1274.96 57.2639C1266.44 54.4338 1259.85 58.2579 1252 61.3997C1237.15 67.3397 1221.11 72.4877 1207 80M977 61L961 80C966.675 76.0023 976.081 68.2695 977 61M981 65L964 86C970.489 81.9456 984.806 74.1792 981 65M985 66L984 70L985 70L985 66M989 103L1070 95C1055.63 84.2528 1030.05 80.0181 1013 74.3333C1008.41 72.804 998.863 67.4624 994.434 70.9336C988.903 75.2674 989.14 96.2339 989 103M982 103L986 103L990 71C979.674 73.9957 983.607 94.3413 982 103M475 76C473.578 81.1716 474.663 94.366 479.314 97.9144C485.55 102.672 496.613 103.871 504 106.333C523.374 112.791 543.104 120.397 563 125L510 94.6944L475 76z"/>
<path style="fill:#ffffff; stroke:none;" d="M0 204C4.66992 200.701 2.88179 186.128 4.71991 180C7.85474 169.549 10.0047 158.05 14.3881 148.055C16.0173 144.34 20.6192 142.958 21.5224 138.957C22.4271 134.948 19.0707 132.514 18.3171 128.91C17.1417 123.29 18.8244 114.721 19.5756 109C20.2641 103.756 19.3522 98.1032 21.1474 93.0394C22.3024 89.7813 25.545 87.5827 25.7932 83.9892C25.9822 81.2527 24.5562 78.7336 21.9414 77.7616C18.5729 76.5094 14.8247 78.5995 13.8511 82.0193C12.8333 85.5939 16.0058 88.5362 16.2693 92C16.6364 96.8267 14.7407 102.296 13.8002 107C7.32112 139.399 0 170.894 0 204z"/>
<path style="fill:#010101; stroke:none;" d="M980 77C970.736 86.1871 955.564 95.0684 950 107L980 104L980 77M465 78C460.587 81.8556 455.941 84.9052 455 91L460 92L465 78M469 78L462 93L474 96L471 78L469 78M1084 96C1081.29 104.91 1085.9 111.778 1089.2 120C1095.63 136.017 1102.19 151.978 1108.6 168C1110.26 172.15 1114.14 188.602 1119.95 187.963C1126.63 187.23 1135.69 169.173 1139.42 164C1151.49 147.285 1163.52 130.505 1175.87 114C1182.6 105.01 1191.62 95.3489 1196 85C1185.7 82.0421 1170.61 86.4119 1160 87.7153C1134.95 90.7931 1109.2 94.918 1084 96M1321 117C1293.37 110.667 1266.24 101.12 1239 93.2909C1230.19 90.76 1215.05 82.8894 1206 85.0532C1189.15 89.0822 1176.25 116.607 1166.58 130C1156.44 144.039 1146.06 157.909 1136 172C1132.28 177.213 1125.43 183.626 1124.04 190C1120.86 204.537 1144.08 222.458 1152.98 232C1156.48 235.761 1159.61 240.603 1164 243.397C1178.62 252.699 1200.27 241.045 1215 236.344C1228.63 231.994 1246.39 229.81 1258.74 222.581C1279.41 210.484 1290.34 179.283 1302 159C1308.66 147.42 1323.46 130.6 1321 117M454 93L453 94L456 100L458 94L454 93M953 93L949 98L953 93M461 95C456.087 105.396 460.976 110.514 465.752 120C472.448 133.297 480.276 146.251 486 160L484.4 146L478.2 115L474.686 100.51L461 95M450 97L449 114L450 114C451.939 107.266 455.234 103.12 450 97M979 190C1004.77 171.844 1027.69 144.312 1050 122C1056.34 115.661 1071.6 106.459 1072 97C1053.85 100.369 1034.42 101.561 1016 102.911C1008.8 103.439 996.804 102.405 990.318 105.603C985.938 107.763 986.471 120.675 985.87 125C983.927 138.977 982.502 153.022 980.576 167C979.588 174.173 976.982 182.976 979 190M446 100L425 165L426 165C432.84 147.37 454.32 119.829 446 100M478 101C481.91 116.113 484.14 131.701 487.2 147C488.162 151.814 488.234 160.821 492.314 164.106C497.622 168.379 505.937 162.394 511 160.139C525.716 153.585 540.283 146.693 555 140.139C560.163 137.839 569.054 135.696 571 130L478 101M1112 195C1114.58 185.127 1109.71 177.071 1105.85 168C1099.52 153.125 1093.6 138.011 1087.6 123C1085.71 118.262 1082.15 102.135 1075.95 101.89C1070.61 101.68 1063.49 110.554 1060 114.004C1047.08 126.769 1033.83 139.166 1021 152C1011.15 161.848 1000.85 171.153 991 181C988.887 183.113 981.081 188.81 982.497 192.397C983.401 194.686 988.14 193.996 990 194L1014 194C1046.69 194 1079.28 195 1112 195M979 106C971.506 108.216 955.35 105.149 949.613 110.603C945.096 114.898 951.667 126.3 953.424 131C960.364 149.557 969.533 168.701 974 188L975 188C975 161.619 983.06 132.015 979 106M982 106L980 147L981 147L986 106L982 106M455 107C445.807 130.695 446 156.568 446 182L473 174.291C476.547 173.272 481.58 172.69 483.987 169.581C487.829 164.618 482.613 157.463 480.139 153C472.386 139.013 466.341 118.222 455 107M16.3333 108.667L16.6667 109.333L16.3333 108.667M15 113L12 132C16.7285 128.593 17.1466 118.116 15 113M967 179C968.057 173.892 964.022 166.828 962.192 162C957.534 149.71 953.179 137.309 948.576 125C946.728 120.059 943.704 109.969 936.302 114.471C928.725 119.082 935.353 128.07 938.424 133C947.938 148.276 958.273 163.264 967 179M564 125L565 126L564 125M445 128C440.661 143.063 431.48 157.818 424.781 172C423.417 174.888 417.346 184.428 419.816 187.306C422.917 190.919 438.785 183.872 443 183C443 166.709 449.751 143.445 445 128M10 141L6 163L7 163C8.41881 156.811 14.0691 146.588 10 141M979 153L980 154L979 153M5.33333 165.667L5.66667 166.333L5.33333 165.667M424 166L425 167L424 166M445 217L469.09 192L485 174C475.535 175.954 466.288 178.931 457 181.579C453.876 182.469 448.141 183.005 446.028 185.728C442.289 190.544 443.31 211.282 445 217M968 180L969 181L968 180M327 186C344.016 210.251 367.615 232.45 387.965 254C392.57 258.877 396.884 264.038 401.424 268.977C402.712 270.378 405.785 274.139 407.972 272.11C410.456 269.805 409.957 259.303 409.996 256C410.155 242.645 408.909 226.985 412 214L327 186M338 186L338 187L412 211C412 205.865 413.353 198.972 409.137 195.147C404.369 190.822 394.085 191.533 388 191C371.439 189.55 354.623 186.138 338 186M441 216L443 186C438.271 186.696 422.597 188.676 420.466 193.43C417.839 199.29 435.943 214.581 441 216M474 190C466.487 198.156 457.25 205.943 450.877 215C447.036 220.459 448.91 228.325 440 228L424 258C438.717 246.02 450.228 224.445 461.29 209C465.185 203.561 472.811 196.589 474 190M1113 198C1102.2 194.807 1088.25 197 1077 197C1055.64 197 1034.39 196 1013 196L990 196C988.033 196.004 983.516 195.324 982.458 197.603C980.417 201.999 992.308 212.049 995 215C1007.01 228.167 1018.9 241.531 1030.58 255C1034.9 259.988 1039.58 267.993 1047 267.427C1054.63 266.845 1061.9 255.386 1066.58 250C1081.63 232.674 1099.88 216.844 1113 198M416 197C411.324 212.821 423.313 216.979 437 219L416 197M1052 271L1129 258L1118 201C1109.92 202.25 1103.86 212.166 1098.71 218C1088.6 229.478 1078.09 240.643 1067.83 252C1062.48 257.921 1055.39 263.72 1052 271M1121 201L1132 257L1163 252C1162.77 244.848 1158.04 241.143 1153.58 236C1143.7 224.625 1133.27 209.714 1121 201M414 215L412 273C420.332 263.048 425.813 249.34 432.14 238C434.368 234.006 438.494 228.864 436.232 224.133C433.453 218.322 419.837 215.862 414 215M1240 231L1241 232L1240 231M1237 232L1238 233L1237 232M1147 270L1236 234C1228.94 232.389 1217.83 238.113 1211 240.33C1200.55 243.725 1189.19 245.864 1179.1 250.249C1175.81 251.683 1174.27 255.34 1170.96 256.613C1161.8 260.13 1154.06 261.331 1147 270M1161 256C1156.78 254.352 1136.81 256.484 1134.12 260.589C1131.64 264.375 1135.78 270.231 1140 269.798C1143.66 269.423 1147.14 265.759 1150 263.71C1153.64 261.101 1157.2 258.367 1161 256M423 259L424 260L423 259M1061 272L1061 273C1077.06 273 1092.97 274 1109 274C1118.18 274 1124.75 275.862 1132 270L1130 260L1061 272M1145 270L1146 271L1145 270z"/>
<path style="fill:#ffffff; stroke:none;" d="M820 294C821.999 294 824.002 294.034 826.001 293.995C840.621 293.711 824.143 277.284 820.434 289.08C819.94 290.651 820.039 292.381 820 294z"/>
</svg>
